<?xml version="1.0" standalone="no"?>
<!DOCTYPE svg PUBLIC "-//W3C//DTD SVG 20010904//EN"
 "http://www.w3.org/TR/2001/REC-SVG-20010904/DTD/svg10.dtd">
<svg version="1.0" xmlns="http://www.w3.org/2000/svg"
 width="701.000000pt" height="701.000000pt" viewBox="0 0 701.000000 701.000000"
 preserveAspectRatio="xMidYMid meet">
<metadata>
Created by potrace 1.14, written by Peter Selinger 2001-2017
</metadata>
<g transform="translate(0.000000,701.000000) scale(0.100000,-0.100000)"
fill="#000000" stroke="none">
<path d="M0 3505 l0 -3505 3505 0 3505 0 0 3505 0 3505 -3505 0 -3505 0 0
-3505z m2834 1779 c25 -14 48 -30 52 -35 11 -19 76 -205 84 -242 4 -21 14 -45
23 -55 8 -9 18 -33 22 -52 4 -19 13 -45 20 -56 8 -12 23 -59 35 -104 12 -46
32 -99 46 -119 13 -19 24 -47 24 -61 0 -14 16 -64 35 -110 19 -47 35 -91 35
-99 0 -8 6 -22 14 -30 7 -9 21 -43 31 -75 9 -32 22 -68 30 -80 7 -12 16 -37
20 -56 3 -19 19 -66 35 -105 16 -38 37 -97 48 -130 31 -93 52 -147 67 -182 8
-17 15 -40 15 -51 0 -11 7 -25 14 -32 8 -6 20 -28 26 -48 6 -20 15 -46 20 -57
5 -11 13 -36 19 -55 20 -72 33 -108 85 -221 14 -31 26 -68 26 -82 0 -14 4 -28
9 -31 4 -3 11 -19 15 -36 3 -17 22 -67 41 -111 19 -44 35 -88 35 -98 0 -10 8
-29 19 -42 10 -13 22 -44 26 -69 4 -24 11 -51 16 -60 14 -25 49 -138 49 -159
0 -11 5 -23 11 -27 16 -9 45 -82 60 -148 7 -31 16 -59 21 -62 4 -3 8 -14 8
-26 0 -11 8 -32 18 -46 30 -43 42 -83 50 -158 10 -100 7 -111 -49 -151 -27
-19 -53 -42 -58 -50 -7 -14 -14 -14 -63 1 -30 8 -71 26 -90 40 -20 13 -45 27
-56 30 -11 4 -23 13 -26 21 -3 8 -14 15 -25 15 -11 0 -25 9 -30 19 -6 10 -24
23 -39 29 -16 5 -49 23 -73 38 -60 38 -121 70 -150 79 -13 4 -33 15 -44 25
-11 10 -51 35 -90 55 -38 20 -77 43 -85 50 -9 8 -43 28 -75 46 -33 17 -81 47
-106 65 -26 19 -51 34 -57 34 -5 0 -15 7 -22 15 -7 8 -23 15 -37 15 -13 0 -35
11 -49 25 -14 14 -46 37 -72 51 -67 36 -185 106 -219 128 -15 11 -46 31 -68
45 -22 14 -46 32 -53 38 -17 17 -27 16 -41 -1 -10 -12 -9 -20 4 -40 10 -14 20
-26 24 -26 13 0 161 -145 161 -158 0 -7 11 -22 25 -34 42 -37 33 -60 -44 -111
-37 -26 -81 -51 -96 -57 -15 -6 -39 -19 -53 -30 -13 -11 -32 -20 -41 -20 -16
0 -27 -7 -89 -56 -15 -11 -52 -33 -82 -47 -30 -15 -62 -31 -70 -36 -8 -5 -44
-22 -80 -37 -35 -16 -91 -47 -125 -69 -33 -22 -106 -64 -162 -93 -86 -44 -111
-52 -156 -52 -40 0 -60 5 -77 20 -13 11 -26 20 -31 20 -4 0 -17 17 -29 37 -18
30 -21 47 -16 86 7 62 22 110 52 170 13 26 24 58 24 71 0 13 7 29 15 36 8 7
15 24 15 39 0 14 9 46 20 70 11 24 20 51 20 61 0 9 12 39 26 66 23 42 48 109
139 369 10 28 28 73 40 100 13 28 31 73 40 100 48 138 68 190 79 200 10 9 27
57 68 195 5 19 21 52 34 73 14 20 27 52 31 70 3 17 11 41 17 52 6 11 16 40 22
65 7 25 21 68 31 95 11 28 39 102 62 165 23 63 53 136 67 161 13 26 24 57 24
69 0 12 6 34 14 48 22 42 66 156 66 170 0 7 4 20 10 30 17 31 70 160 70 171 0
17 70 200 101 265 16 33 29 65 29 73 0 21 59 185 76 211 9 14 30 38 46 54 39
38 106 39 172 2z m1996 -240 c30 -4 61 -11 68 -17 19 -15 73 -46 112 -63 41
-19 39 -17 153 -132 48 -49 96 -104 107 -123 33 -61 78 -158 89 -191 6 -18 22
-68 36 -111 22 -68 25 -94 25 -215 0 -140 -8 -186 -58 -337 -30 -88 -48 -128
-84 -182 -51 -75 -178 -195 -242 -227 -31 -16 -55 -33 -53 -39 3 -9 193 -97
210 -97 30 0 263 -228 293 -287 10 -21 26 -47 36 -58 21 -25 68 -169 68 -210
1 -16 7 -59 15 -95 8 -36 14 -86 15 -111 0 -69 -46 -298 -70 -347 -11 -23 -24
-52 -29 -65 -25 -63 -166 -220 -246 -272 -42 -28 -138 -75 -152 -75 -7 0 -16
-8 -22 -17 -7 -14 -33 -21 -103 -30 -51 -6 -115 -16 -143 -22 -62 -13 -422
-26 -458 -17 -18 4 -29 15 -33 34 -11 50 -65 217 -84 257 -10 22 -21 56 -25
75 -4 19 -11 41 -15 50 -4 8 -19 38 -33 65 -14 28 -30 73 -35 100 -9 48 -63
203 -79 228 -12 19 -31 74 -53 155 -11 41 -33 99 -49 130 -16 31 -33 80 -39
107 -6 28 -20 72 -31 99 -12 26 -21 58 -21 71 0 14 -8 29 -19 34 -13 7 -21 26
-25 65 -4 32 -17 66 -30 85 -15 20 -22 40 -18 56 2 14 -5 42 -18 67 -13 24
-33 76 -46 117 -13 41 -29 80 -36 88 -6 8 -15 36 -19 61 -8 48 -61 212 -80
246 -6 10 -17 39 -24 65 -14 52 -23 76 -75 211 -20 52 -42 115 -49 140 -7 25
-17 59 -23 75 -5 17 -15 50 -22 75 -7 25 -24 70 -38 100 -38 78 -108 302 -108
345 0 25 10 50 33 80 38 52 46 56 112 64 68 8 1346 4 1415 -5z m-920 -2348 c0
-3 -4 -8 -10 -11 -5 -3 -10 -1 -10 4 0 6 5 11 10 11 6 0 10 -2 10 -4z"/>
</g>
</svg>
